<svg xmlns="http://www.w3.org/2000/svg" xmlns:xlink="http://www.w3.org/1999/xlink" width="637" height="159.099" viewBox="0 0 637 159.099">
  <defs>
    <filter id="shape" x="5" y="12" width="331" height="147.099" filterUnits="userSpaceOnUse">
      <feOffset dy="7" input="SourceAlpha"/>
      <feGaussianBlur stdDeviation="5" result="blur"/>
      <feFlood flood-opacity="0.239"/>
      <feComposite operator="in" in2="blur"/>
      <feComposite in="SourceGraphic"/>
    </filter>
    <filter id="Union_2" x="319" y="48.481" width="68" height="39.031" filterUnits="userSpaceOnUse">
      <feOffset dx="1" dy="2" input="SourceAlpha"/>
      <feGaussianBlur stdDeviation="1" result="blur-2"/>
      <feFlood flood-opacity="0.161"/>
      <feComposite operator="in" in2="blur-2"/>
      <feComposite in="SourceGraphic"/>
    </filter>
  </defs>
  <g id="_02-bem-block-example" data-name="02-bem-block-example" transform="translate(-50 -41)">
    <g id="Card_Visual" data-name="Card Visual">
      <g id="Background" transform="translate(50 41)" fill="#f2f2f2" stroke="rgba(112,112,112,0.3)" stroke-width="1">
        <rect width="341" height="159" stroke="none"/>
        <rect x="0.5" y="0.5" width="340" height="158" fill="none"/>
      </g>
      <g transform="matrix(1, 0, 0, 1, 50, 41)" filter="url(#shape)">
        <rect id="shape-2" data-name="shape" width="301" height="117.099" rx="2" transform="translate(20 20)" fill="#fff"/>
      </g>
    </g>
    <g id="CSS_Background" data-name="CSS Background" transform="translate(391 41)" fill="#fff" stroke="rgba(112,112,112,0)" stroke-width="1">
      <rect width="296" height="159" stroke="none"/>
      <rect x="0.5" y="0.5" width="295" height="158" fill="none"/>
    </g>
    <g transform="matrix(1, 0, 0, 1, 50, 41)" filter="url(#Union_2)">
      <path id="Union_2-2" data-name="Union 2" d="M-2215.88-352.951l-11.559-11.559q-.138-.118-.269-.249a4.708,4.708,0,0,1-.845-1.15,4.677,4.677,0,0,1-.535-2.179,4.678,4.678,0,0,1,.619-2.332,4.715,4.715,0,0,1,.762-1l11.812-11.812a4.707,4.707,0,0,1,6.657,0,4.707,4.707,0,0,1,0,6.657l-3.784,3.784h41.237a4.7,4.7,0,0,1,4.7,4.7,4.7,4.7,0,0,1-4.7,4.7h-41.258l3.8,3.8a4.693,4.693,0,0,1,0,6.638,4.677,4.677,0,0,1-3.318,1.375A4.679,4.679,0,0,1-2215.88-352.951Z" transform="translate(2550.09 434.09)" fill="#2dbc2d"/>
    </g>
    <g id="Block_-_Product_Card" data-name="Block - Product Card" transform="translate(-544.027 -246)">
      <path id="Path_36" data-name="Path 36" d="M5.4.413A1.379,1.379,0,0,1,4.386-.009,1.379,1.379,0,0,1,3.964-1.02,1.368,1.368,0,0,1,4.39-2.035,1.391,1.391,0,0,1,5.4-2.452,1.391,1.391,0,0,1,6.4-2.035,1.368,1.368,0,0,1,6.829-1.02,1.379,1.379,0,0,1,6.407-.009,1.379,1.379,0,0,1,5.4.413Zm8.279-8.024a5.369,5.369,0,0,1,1.8-1.854A3.817,3.817,0,0,1,17.4-10.09a2.961,2.961,0,0,1,2.215,1.063A4.609,4.609,0,0,1,20.6-5.8a6.85,6.85,0,0,1-.655,3.045A5.512,5.512,0,0,1,18.2-.637a4.526,4.526,0,0,1-2.7.778q-.457,0-1.406-.1Q13.957.026,13.676,0V3.814H12.041V-9.817h1.635Zm0,1.942v4.21a6.6,6.6,0,0,0,1.635.229,3.19,3.19,0,0,0,2.5-1.165,4.684,4.684,0,0,0,1.015-3.186,3.654,3.654,0,0,0-.554-2.206,1.571,1.571,0,0,0-1.257-.738,2.727,2.727,0,0,0-1.683.773A7.5,7.5,0,0,0,13.676-5.669ZM23.8,0V-9.817h1.635v2.145a5.494,5.494,0,0,1,1.753-1.815,4.15,4.15,0,0,1,2.2-.6,6.023,6.023,0,0,1,1.775.272v3.542H29.593V-8.517a4.12,4.12,0,0,0-.65-.07,2.814,2.814,0,0,0-1.793.721A7.881,7.881,0,0,0,25.436-5.7V0Zm14.01.272A4.228,4.228,0,0,1,34.436-1.2,5.494,5.494,0,0,1,33.17-4.913a5.477,5.477,0,0,1,1.266-3.709,4.233,4.233,0,0,1,3.375-1.468,4.223,4.223,0,0,1,3.366,1.468,5.477,5.477,0,0,1,1.266,3.709A5.494,5.494,0,0,1,41.177-1.2,4.218,4.218,0,0,1,37.811.272Zm0-1.362a2.479,2.479,0,0,0,2.083-1.02,4.54,4.54,0,0,0,.773-2.8,4.524,4.524,0,0,0-.773-2.795,2.479,2.479,0,0,0-2.083-1.02,2.488,2.488,0,0,0-2.092,1.02,4.524,4.524,0,0,0-.773,2.795,4.54,4.54,0,0,0,.773,2.8A2.488,2.488,0,0,0,37.811-1.09ZM51.126-2.206a5.283,5.283,0,0,1-1.8,1.854A3.839,3.839,0,0,1,47.4.272a2.947,2.947,0,0,1-2.21-1.063,4.623,4.623,0,0,1-.98-3.226,6.889,6.889,0,0,1,.65-3.045A5.477,5.477,0,0,1,46.6-9.18a4.526,4.526,0,0,1,2.7-.778q.466,0,1.406.1.141.018.422.044v-4.368H52.77V0H51.126Zm0-1.942v-4.21a6.392,6.392,0,0,0-1.617-.229,3.186,3.186,0,0,0-2.518,1.169,4.714,4.714,0,0,0-1.006,3.182,3.68,3.68,0,0,0,.549,2.2,1.558,1.558,0,0,0,1.252.743,2.743,2.743,0,0,0,1.688-.773A7.33,7.33,0,0,0,51.126-4.148ZM63.448-9.817V0H61.813V-2.153A5.888,5.888,0,0,1,60.056-.334a3.614,3.614,0,0,1-1.934.606,2.854,2.854,0,0,1-1.578-.461,2.435,2.435,0,0,1-1-1.213,9.886,9.886,0,0,1-.281-2.931V-9.817H56.9v5.687a8,8,0,0,0,.136,1.868,1.466,1.466,0,0,0,.5.743,1.24,1.24,0,0,0,.787.29,3,3,0,0,0,1.85-.813A6.566,6.566,0,0,0,61.813-4.1V-9.817ZM74.435-.281a9.8,9.8,0,0,1-3.129.554,5.039,5.039,0,0,1-2.624-.681,4.81,4.81,0,0,1-1.789-1.846,5.4,5.4,0,0,1-.642-2.65,5.07,5.07,0,0,1,1.455-3.709,4.749,4.749,0,0,1,3.511-1.477,10.086,10.086,0,0,1,3.217.571v1.573a7.52,7.52,0,0,0-3.067-.782,3.4,3.4,0,0,0-1.687.444A2.918,2.918,0,0,0,68.458-6.9a4.6,4.6,0,0,0-.431,1.934,4.389,4.389,0,0,0,.831,2.531,2.944,2.944,0,0,0,2.606,1.2,7.387,7.387,0,0,0,1.055-.075,13.188,13.188,0,0,0,1.916-.549ZM85.184-.4a9.16,9.16,0,0,1-1.67.576,5.717,5.717,0,0,1-1,.092,4.415,4.415,0,0,1-1.881-.4,2.768,2.768,0,0,1-1.288-1.169,5.052,5.052,0,0,1-.435-2.391V-7.638H76.456V-9h2.452v-3.955h1.635V-9h4.368v1.362H80.543v3.929a3.588,3.588,0,0,0,.281,1.674,1.733,1.733,0,0,0,.751.716,2.519,2.519,0,0,0,1.112.229,5.054,5.054,0,0,0,2.5-.747Zm3.226-4.447V-6.205h6.82v1.362ZM106.84-.281a9.8,9.8,0,0,1-3.129.554,5.039,5.039,0,0,1-2.624-.681A4.81,4.81,0,0,1,99.3-2.254a5.4,5.4,0,0,1-.642-2.65,5.07,5.07,0,0,1,1.455-3.709,4.749,4.749,0,0,1,3.511-1.477,10.086,10.086,0,0,1,3.217.571v1.573a7.52,7.52,0,0,0-3.067-.782,3.4,3.4,0,0,0-1.687.444A2.918,2.918,0,0,0,100.863-6.9a4.6,4.6,0,0,0-.431,1.934,4.389,4.389,0,0,0,.831,2.531,2.944,2.944,0,0,0,2.606,1.2,7.387,7.387,0,0,0,1.055-.075,13.188,13.188,0,0,0,1.916-.549Zm8.991-1.925a5.283,5.283,0,0,1-1.8,1.854A3.839,3.839,0,0,1,112.1.272a2.947,2.947,0,0,1-2.21-1.063,4.623,4.623,0,0,1-.98-3.226,6.889,6.889,0,0,1,.65-3.045A5.477,5.477,0,0,1,111.3-9.18a4.526,4.526,0,0,1,2.7-.778q.466,0,1.406.1.141.018.422.044h1.644v6.935A9.317,9.317,0,0,0,117.844,0h-1.705A15.3,15.3,0,0,1,115.831-2.206Zm0-1.942v-4.21a6.392,6.392,0,0,0-1.617-.229A3.186,3.186,0,0,0,111.7-7.418a4.714,4.714,0,0,0-1.006,3.182,3.68,3.68,0,0,0,.549,2.2,1.558,1.558,0,0,0,1.252.743,2.743,2.743,0,0,0,1.688-.773A7.33,7.33,0,0,0,115.831-4.148ZM121.017,0V-9.817h1.635v2.145A5.494,5.494,0,0,1,124.4-9.488a4.15,4.15,0,0,1,2.2-.6,6.023,6.023,0,0,1,1.775.272v3.542h-1.573V-8.517a4.12,4.12,0,0,0-.65-.07,2.814,2.814,0,0,0-1.793.721A7.881,7.881,0,0,0,122.651-5.7V0ZM137.54-2.206a5.283,5.283,0,0,1-1.8,1.854,3.839,3.839,0,0,1-1.929.624A2.947,2.947,0,0,1,131.6-.791a4.623,4.623,0,0,1-.98-3.226,6.889,6.889,0,0,1,.65-3.045,5.477,5.477,0,0,1,1.74-2.118,4.526,4.526,0,0,1,2.7-.778q.466,0,1.406.1.141.018.422.044v-4.368h1.644V0H137.54Zm0-1.942v-4.21a6.392,6.392,0,0,0-1.617-.229A3.186,3.186,0,0,0,133.4-7.418,4.714,4.714,0,0,0,132.4-4.236a3.68,3.68,0,0,0,.549,2.2,1.558,1.558,0,0,0,1.252.743,2.743,2.743,0,0,0,1.688-.773A7.33,7.33,0,0,0,137.54-4.148Z" transform="translate(983 356)" fill="#aa5d00"/>
      <path id="Path_37" data-name="Path 37" d="M4.808-5.59a4.519,4.519,0,0,1,1.2.844,3.044,3.044,0,0,1,.571.848,2.483,2.483,0,0,1,.189,1,6.465,6.465,0,0,1-.176,1.31l-.22,1A6.419,6.419,0,0,0,6.2.624a1.176,1.176,0,0,0,.417.91,2.735,2.735,0,0,0,1.718.374H9.694V3.27H8.314q-2.408,0-3.1-.773A2.549,2.549,0,0,1,4.518.747,5.2,5.2,0,0,1,4.649-.369l.158-.7.149-.765L5.063-2.3a3.4,3.4,0,0,0,.062-.633,1.96,1.96,0,0,0-.549-1.4,2.61,2.61,0,0,0-1.938-.58H1.854V-6.275h.782a2.64,2.64,0,0,0,1.929-.571,1.956,1.956,0,0,0,.558-1.424,3.043,3.043,0,0,0-.062-.615l-.105-.457-.149-.765-.158-.7a5.319,5.319,0,0,1-.132-1.125,2.554,2.554,0,0,1,.694-1.745q.694-.778,3.1-.778h1.38v1.371H8.332a2.737,2.737,0,0,0-1.714.374,1.18,1.18,0,0,0-.422.918,6.414,6.414,0,0,0,.176,1.2l.22,1a6.465,6.465,0,0,1,.176,1.31,2.483,2.483,0,0,1-.189,1,3.044,3.044,0,0,1-.571.848A4.519,4.519,0,0,1,4.808-5.59Z" transform="translate(1134 356)" fill="#545454"/>
      <g id="Group_3" data-name="Group 3" transform="translate(18.973 -3)">
        <path id="Path_4" data-name="Path 4" d="M3215.9,653.242V640.317h127.9v12.925" transform="translate(-2241.343 -318.242)" fill="none" stroke="#707070" stroke-width="1"/>
        <g id="Label_-_Block" data-name="Label - Block" transform="translate(1015.054 309)">
          <rect id="Rectangle_16" data-name="Rectangle 16" width="36" height="26" transform="translate(6)" fill="#fff"/>
          <path id="Path_35" data-name="Path 35" d="M1.073,0V-9.242H4.094a3.507,3.507,0,0,1,2.263.622,2.242,2.242,0,0,1,.759,1.841,1.877,1.877,0,0,1-.368,1.146,2.387,2.387,0,0,1-1,.771,2.143,2.143,0,0,1,1.184.8,2.286,2.286,0,0,1,.435,1.4A2.472,2.472,0,0,1,6.557-.711,3.334,3.334,0,0,1,4.278,0ZM2.292-4.323V-1H4.3a1.938,1.938,0,0,0,1.343-.441,1.549,1.549,0,0,0,.492-1.216q0-1.669-1.815-1.669Zm0-.978H4.132a1.932,1.932,0,0,0,1.279-.4,1.339,1.339,0,0,0,.479-1.085,1.317,1.317,0,0,0-.444-1.108,2.186,2.186,0,0,0-1.352-.346h-1.8ZM10.258,0H9.083V-9.75h1.174Zm1.568-3.5a4.057,4.057,0,0,1,.4-1.815,2.96,2.96,0,0,1,1.1-1.244A3.007,3.007,0,0,1,14.942-7a2.9,2.9,0,0,1,2.269.971,3.736,3.736,0,0,1,.866,2.583v.083a4.092,4.092,0,0,1-.384,1.8A2.916,2.916,0,0,1,16.6-.317a3.041,3.041,0,0,1-1.641.444,2.889,2.889,0,0,1-2.263-.971,3.718,3.718,0,0,1-.866-2.571Zm1.181.14a2.938,2.938,0,0,0,.53,1.834,1.7,1.7,0,0,0,1.419.692,1.686,1.686,0,0,0,1.422-.7A3.213,3.213,0,0,0,16.9-3.5a2.933,2.933,0,0,0-.536-1.831,1.705,1.705,0,0,0-1.425-.7,1.686,1.686,0,0,0-1.4.692A3.189,3.189,0,0,0,13.006-3.358Zm9.3,2.526a1.692,1.692,0,0,0,1.1-.381,1.34,1.34,0,0,0,.521-.952h1.111a2.13,2.13,0,0,1-.406,1.124,2.676,2.676,0,0,1-1,.851,2.885,2.885,0,0,1-1.323.317,2.829,2.829,0,0,1-2.231-.936,3.729,3.729,0,0,1-.828-2.561v-.2a4.135,4.135,0,0,1,.368-1.784,2.8,2.8,0,0,1,1.057-1.212A3,3,0,0,1,22.3-7a2.755,2.755,0,0,1,1.92.692,2.473,2.473,0,0,1,.816,1.8H23.924a1.618,1.618,0,0,0-.5-1.095A1.57,1.57,0,0,0,22.3-6.03a1.644,1.644,0,0,0-1.387.644,3.026,3.026,0,0,0-.492,1.863V-3.3a2.965,2.965,0,0,0,.489,1.828A1.651,1.651,0,0,0,22.306-.832ZM28.272-3.18l-.736.768V0H26.362V-9.75h1.174v5.9l.628-.755L30.3-6.868h1.428L29.06-4l2.983,4H30.666Z" transform="translate(8 18)" fill="#727272"/>
        </g>
      </g>
      <path id="Path_39" data-name="Path 39" d="M5.994-5.59a4.519,4.519,0,0,1-1.2-.844,2.962,2.962,0,0,1-.567-.848,2.535,2.535,0,0,1-.185-1,6.787,6.787,0,0,1,.167-1.31l.22-1A6.419,6.419,0,0,0,4.605-11.8a1.176,1.176,0,0,0-.417-.91,2.735,2.735,0,0,0-1.718-.374H1.107v-1.371h1.38q2.408,0,3.107.778a2.545,2.545,0,0,1,.7,1.745,4.922,4.922,0,0,1-.141,1.125l-.158.7-.149.765-.105.457a3.542,3.542,0,0,0-.062.642,1.949,1.949,0,0,0,.549,1.389,2.61,2.61,0,0,0,1.938.58h.782v1.362H8.165a2.627,2.627,0,0,0-1.929.576,1.971,1.971,0,0,0-.558,1.428,3,3,0,0,0,.062.606l.105.466.149.765.158.7A5,5,0,0,1,6.293.756a2.524,2.524,0,0,1-.7,1.745q-.7.769-3.107.769H1.107V1.907H2.47a2.735,2.735,0,0,0,1.718-.374A1.185,1.185,0,0,0,4.605.615a6.414,6.414,0,0,0-.176-1.2l-.22-1A6.787,6.787,0,0,1,4.043-2.9a2.535,2.535,0,0,1,.185-1,2.962,2.962,0,0,1,.567-.848A4.519,4.519,0,0,1,5.994-5.59Z" transform="translate(983 406)" fill="#545454"/>
      <path id="Path_38" data-name="Path 38" d="M27,.413a1.379,1.379,0,0,1-1.011-.422,1.379,1.379,0,0,1-.422-1.011,1.368,1.368,0,0,1,.426-1.015A1.391,1.391,0,0,1,27-2.452a1.391,1.391,0,0,1,1.006.417,1.368,1.368,0,0,1,.426,1.015,1.379,1.379,0,0,1-.422,1.011A1.379,1.379,0,0,1,27,.413Zm10.8,0a1.379,1.379,0,0,1-1.011-.422,1.379,1.379,0,0,1-.422-1.011A1.368,1.368,0,0,1,36.8-2.035,1.391,1.391,0,0,1,37.8-2.452a1.391,1.391,0,0,1,1.006.417,1.368,1.368,0,0,1,.426,1.015,1.379,1.379,0,0,1-.422,1.011A1.379,1.379,0,0,1,37.8.413Zm10.8,0a1.379,1.379,0,0,1-1.011-.422,1.379,1.379,0,0,1-.422-1.011A1.368,1.368,0,0,1,47.6-2.035,1.391,1.391,0,0,1,48.6-2.452a1.391,1.391,0,0,1,1.006.417,1.368,1.368,0,0,1,.426,1.015,1.379,1.379,0,0,1-.422,1.011A1.379,1.379,0,0,1,48.6.413Z" transform="translate(983 381)" fill="#545454"/>
    </g>
  </g>
</svg>
